<?xml version="1.0" encoding="UTF-8" standalone="no"?>
<svg
   xmlns:dc="http://purl.org/dc/elements/1.1/"
   xmlns:cc="http://creativecommons.org/ns#"
   xmlns:rdf="http://www.w3.org/1999/02/22-rdf-syntax-ns#"
   xmlns:svg="http://www.w3.org/2000/svg"
   xmlns="http://www.w3.org/2000/svg"
   xmlns:sodipodi="http://sodipodi.sourceforge.net/DTD/sodipodi-0.dtd"
   xmlns:inkscape="http://www.inkscape.org/namespaces/inkscape"
   viewBox="0 0 1333.3333 500"
   height="500"
   width="1333.3333"
   xml:space="preserve"
   id="svg2"
   version="1.1"
   sodipodi:docname="commonground.svg"
   inkscape:version="0.92.1 r15371"><sodipodi:namedview
     pagecolor="#ffffff"
     bordercolor="#666666"
     borderopacity="1"
     objecttolerance="10"
     gridtolerance="10"
     guidetolerance="10"
     inkscape:pageopacity="0"
     inkscape:pageshadow="2"
     inkscape:window-width="1440"
     inkscape:window-height="847"
     id="namedview3703"
     showgrid="false"
     showguides="true"
     inkscape:guide-bbox="true"
     inkscape:zoom="0.96375006"
     inkscape:cx="666.66663"
     inkscape:cy="250"
     inkscape:window-x="-8"
     inkscape:window-y="76"
     inkscape:window-maximized="1"
     inkscape:current-layer="svg2"><sodipodi:guide
       position="833.20361,254.21529"
       orientation="0,1"
       id="guide3705"
       inkscape:locked="false" /></sodipodi:namedview><metadata
     id="metadata8"><rdf:RDF><cc:Work
         rdf:about=""><dc:format>image/svg+xml</dc:format><dc:type
           rdf:resource="http://purl.org/dc/dcmitype/StillImage" /><dc:title></dc:title></cc:Work></rdf:RDF></metadata><defs
     id="defs6" /><g
     transform="matrix(1.3333333,0,0,-1.3333333,0,500)"
     id="g10"><g
       transform="scale(0.1)"
       id="g12"><path
         id="path14"
         style="fill:#cc1741;fill-opacity:1;fill-rule:nonzero;stroke:none"
         d="m 8797.91,1434.18 -192.03,295.7 192.03,295.7 190.34,293.1 H 8309.97 V 1488.47 H 7275.99 v -354.73 h 1713.95 v 4.74 l -192.03,295.7" /><path
         id="path16"
         style="fill:#050606;fill-opacity:1;fill-rule:nonzero;stroke:none"
         d="m 8841.08,1449.42 c -64,98.56 -128.01,197.13 -192.03,295.7 0,-16.83 0,-33.65 0,-50.48 127.46,196.27 254.92,392.53 382.37,588.8 20.96,32.27 -6.63,75.24 -43.17,75.24 -226.09,0 -452.19,0 -678.28,0 -27.03,0 -50,-22.91 -50,-50 0,-276.74 0,-553.47 0,-830.21 16.66,16.67 33.33,33.34 50,50 -301.54,0 -603.08,0 -904.62,0 -43.11,0 -86.24,0 -129.36,0 -27.03,0 -50,-22.9 -50,-50 0,-118.24 0,-236.49 0,-354.73 0,-27.04 22.91,-50 50,-50 192.53,0 385.07,0 577.6,0 307.45,0 614.9,0 922.35,0 71.32,0 142.66,0 214,0 27.03,0 50,22.91 50,50 0,23.74 -12.55,38.79 -24.76,57.59 -22.41,34.51 -44.82,69.03 -67.23,103.54 -35.63,54.85 -71.24,109.7 -106.87,164.55 -34.92,53.77 -121.53,3.71 -86.34,-50.47 32.91,-50.68 65.82,-101.36 98.73,-152.04 21.43,-33 42.87,-66.01 64.3,-99.02 7.23,-11.13 13.89,-23.73 22.17,-34.13 13.97,-17.53 0,-1.16 0,9.98 16.67,16.66 33.33,33.33 50,50 -192.53,0 -385.07,0 -577.6,0 -307.45,0 -614.89,0 -922.34,0 -71.34,0 -142.68,0 -214.01,0 16.67,-16.67 33.33,-33.34 50,-50 0,118.24 0,236.49 0,354.73 -16.67,-16.66 -33.33,-33.33 -50,-50 301.54,0 603.07,0 904.61,0 43.12,0 86.24,0 129.37,0 27.02,0 50,22.91 50,50 0,276.74 0,553.47 0,830.21 -16.67,-16.67 -33.34,-33.34 -50,-50 226.09,0 452.19,0 678.28,0 -14.38,25.07 -28.78,50.15 -43.17,75.23 -127.45,-196.26 -254.92,-392.53 -382.38,-588.79 -9.26,-14.29 -9.26,-36.2 0,-50.48 64.02,-98.56 128.03,-197.13 192.04,-295.69 34.93,-53.78 121.54,-3.72 86.34,50.47" /><path
         id="path18"
         style="fill:#cc1741;fill-opacity:1;fill-rule:nonzero;stroke:none"
         d="m 1234.79,1427.94 192.03,295.7 -192.03,295.7 -190.34,293.09 h 678.29 v -830.2 H 2756.72 V 1127.49 H 1042.77 v 4.75 l 192.02,295.7" /><path
         id="path20"
         style="fill:#050606;fill-opacity:1;fill-rule:nonzero;stroke:none"
         d="m 1277.97,1402.7 c 64.01,98.57 128.02,197.13 192.03,295.7 9.28,14.28 9.28,36.19 0,50.47 -127.45,196.27 -254.91,392.53 -382.37,588.8 -14.39,-25.08 -28.78,-50.16 -43.18,-75.24 226.11,0 452.2,0 678.29,0 -16.67,16.67 -33.33,33.34 -50,50 0,-276.73 0,-553.47 0,-830.2 0,-27.03 22.91,-50 50,-50 301.55,0 603.08,0 904.61,0 43.13,0 86.24,0 129.37,0 -16.67,16.67 -33.33,33.33 -50,50 0,-118.25 0,-236.49 0,-354.74 16.67,16.67 33.33,33.34 50,50 -192.53,0 -385.07,0 -577.6,0 -307.45,0 -614.89,0 -922.34,0 -71.34,0 -142.68,0 -214.01,0 16.66,-16.66 33.33,-33.33 50,-50 0,-10.87 -14.14,-27.72 -0.01,-9.98 8.32,10.44 14.92,22.97 22.17,34.14 21.44,33 42.87,66.01 64.31,99.02 32.91,50.68 65.82,101.35 98.73,152.03 35.15,54.13 -51.39,104.31 -86.35,50.47 -35.62,-54.84 -71.24,-109.7 -106.86,-164.55 -21.83,-33.62 -43.68,-67.25 -65.51,-100.88 -12.65,-19.48 -26.477,-35.74 -26.477,-60.25 0,-27.03 22.897,-50 49.997,-50 192.53,0 385.07,0 577.6,0 307.44,0 614.89,0 922.33,0 71.34,0 142.68,0 214.02,0 27.03,0 50,22.91 50,50 0,118.25 0,236.49 0,354.74 0,27.03 -22.91,50 -50,50 -301.54,0 -603.08,0 -904.61,0 -43.13,0 -86.24,0 -129.37,0 16.67,-16.67 33.33,-33.33 50,-50 0,276.73 0,553.47 0,830.2 0,27.03 -22.91,50 -50,50 -226.09,0 -452.18,0 -678.29,0 -36.54,0 -64.13,-42.96 -43.17,-75.23 127.46,-196.27 254.92,-392.54 382.37,-588.8 0,16.82 0,33.65 0,50.47 -64,-98.56 -128.02,-197.13 -192.03,-295.7 -35.15,-54.13 51.39,-104.31 86.35,-50.47" /><path
         id="path22"
         style="fill:#cc1741;fill-opacity:1;fill-rule:nonzero;stroke:none"
         d="m 8312.77,1478.47 h -6578.3 v 1184.94 h 6578.3 V 1478.47" /><path
         id="path24"
         style="fill:#050606;fill-opacity:1;fill-rule:nonzero;stroke:none"
         d="m 8312.77,1528.47 c -218.74,0 -437.49,0 -656.23,0 -525.07,0 -1050.13,0 -1575.19,0 -631.42,0 -1262.84,0 -1894.25,0 -548.46,0 -1096.91,0 -1645.35,0 -179.74,0 -359.47,0 -539.2,0 -83.67,0 -173.29,9.23 -256.59,0 -3.73,-0.41 -7.72,0 -11.49,0 16.67,-16.66 33.34,-33.33 50,-50 0,346.41 0,692.81 0,1039.22 0,48.57 0,97.15 0,145.72 -16.66,-16.66 -33.33,-33.33 -50,-50 218.75,0 437.49,0 656.23,0 525.07,0 1050.13,0 1575.2,0 631.41,0 1262.83,0 1894.25,0 548.45,0 1096.9,0 1645.35,0 179.73,0 359.46,0 539.2,0 83.67,0 173.29,-9.22 256.59,0 3.73,0.42 7.71,0 11.48,0 -16.67,16.67 -33.34,33.34 -50,50 0,-346.4 0,-692.8 0,-1039.21 0,-48.58 0,-97.15 0,-145.73 0,-64.34 100,-64.45 100,0 0,346.41 0,692.81 0,1039.22 0,48.57 0,97.15 0,145.72 0,27.03 -22.91,50 -50,50 -218.74,0 -437.49,0 -656.23,0 -525.07,0 -1050.13,0 -1575.19,0 -631.42,0 -1262.84,0 -1894.25,0 -548.46,0 -1096.91,0 -1645.35,0 -264.84,0 -531.05,7.94 -795.79,0 -3.82,-0.11 -7.66,0 -11.49,0 -27.02,0 -50,-22.9 -50,-50 0,-346.4 0,-692.8 0,-1039.21 0,-48.58 0,-97.15 0,-145.73 0,-27.02 22.91,-50 50,-50 218.75,0 437.49,0 656.23,0 525.07,0 1050.13,0 1575.2,0 631.41,0 1262.83,0 1894.25,0 548.45,0 1096.9,0 1645.35,0 264.83,0 531.04,-7.93 795.79,0 3.82,0.12 7.65,0 11.48,0 64.35,0 64.46,100 0,100" /><path
         id="path26"
         style="fill:#ffffff;fill-opacity:1;fill-rule:nonzero;stroke:none"
         d="m 2450.37,2291.59 c 34.05,21.33 71.9,32.15 112.49,32.15 32.62,0 59.28,-4.02 79.22,-11.95 20.19,-8.04 41.38,-21.46 63.23,-40.12 11.64,-9.48 24.71,-14.29 38.85,-14.29 14.39,0 27.23,4.97 38.12,14.75 11.23,10.08 17.17,23.52 17.17,38.89 0,9.2 -1.52,17.51 -4.54,24.74 -3.28,7.77 -9.41,15.07 -17.82,21.37 -33.05,26.68 -66.28,46.15 -98.77,57.88 v 0 c -32.55,11.74 -71.4,17.69 -115.46,17.69 -62.35,0 -120.18,-15.84 -171.87,-47.1 -51.54,-31.19 -92.73,-74.03 -122.43,-127.34 -29.65,-53.26 -44.69,-112.66 -44.69,-176.56 0,-64.44 15.03,-124.26 44.67,-177.79 29.71,-53.62 70.93,-96.49 122.5,-127.4 51.65,-30.95 109.46,-46.65 171.82,-46.65 79.8,0 152.16,25.71 215.06,76.4 l 1.19,1.08 c 11.83,11.83 17.82,25.86 17.82,41.68 0,16.14 -4.87,29.6 -14.49,40.02 -17.83,19.23 -46.69,22.48 -74.14,3.06 -46.36,-34.8 -95.29,-52.44 -145.44,-52.44 -40.62,0 -78.46,10.82 -112.49,32.16 -34.3,21.47 -61.92,50.99 -82.11,87.75 -20.21,36.75 -30.46,77.84 -30.46,122.13 0,43.74 10.26,84.71 30.48,121.76 20.18,36.99 47.79,66.64 82.09,88.13" /><path
         id="path28"
         style="fill:#ffffff;fill-opacity:1;fill-rule:nonzero;stroke:none"
         d="m 3412.28,1838.82 c -44.61,0 -85.22,10.74 -120.74,31.91 -35.53,21.17 -63.61,50.47 -83.47,87.09 -19.96,36.77 -30.07,78.45 -30.07,123.88 0,45.41 10.11,87.1 30.07,123.89 19.86,36.6 47.79,65.75 83.02,86.65 v 0 c 35.27,20.9 76.04,31.5 121.19,31.5 45.16,0 85.94,-10.6 121.2,-31.5 35.21,-20.89 63.14,-50.04 83,-86.64 19.97,-36.83 30.1,-78.51 30.1,-123.9 0,-45.4 -10.13,-87.08 -30.09,-123.88 -19.86,-36.62 -47.95,-65.92 -83.45,-87.09 -35.54,-21.17 -76.17,-31.91 -120.76,-31.91 z m 179.86,549.11 c -52.68,29.71 -113.2,44.77 -179.86,44.77 -67.22,0 -128.01,-15.06 -180.7,-44.77 -52.86,-29.81 -94.48,-71.91 -123.71,-125.13 -29.07,-52.94 -43.81,-113.86 -43.81,-181.1 0,-67.22 14.74,-128.28 43.8,-181.49 29.21,-53.5 70.84,-95.75 123.72,-125.58 52.69,-29.7 113.48,-44.77 180.7,-44.77 67.24,0 127.9,15.07 180.31,44.79 52.57,29.81 94.18,72.04 123.67,125.51 29.36,53.26 44.26,114.34 44.26,181.54 0,67.21 -14.91,128.16 -44.28,181.16 -29.5,53.18 -71.25,95.26 -124.1,125.07" /><path
         id="path30"
         style="fill:#ffffff;fill-opacity:1;fill-rule:nonzero;stroke:none"
         d="m 4683.07,2424.3 c -22.17,0 -40.03,-10.75 -51.64,-31.08 l -229.72,-473.26 -236.1,473.26 c -11.61,20.33 -29.47,31.08 -51.63,31.08 -16.37,0 -30.39,-5.72 -41.67,-17 -11.27,-11.28 -16.97,-25.3 -16.97,-41.68 v -568.68 c 0,-16.37 5.7,-30.4 16.98,-41.69 11.27,-11.27 25.29,-16.99 41.66,-16.99 16.38,0 30.39,5.72 41.68,17 11.26,11.28 16.98,25.31 16.98,41.68 v 346.22 l 172.1,-345.19 c 10.91,-22.57 29.52,-34.51 53.79,-34.51 20.69,0 38.09,9.9 50.34,28.63 l 175.56,357.69 v -352.84 c 0,-16.39 5.72,-30.41 16.98,-41.68 11.26,-11.28 25.28,-17 41.66,-17 15.72,0 29.54,5.66 41.08,16.83 11.65,11.3 17.57,25.38 17.57,41.85 v 568.68 c 0,16.39 -5.72,30.41 -16.98,41.68 -11.26,11.28 -25.29,17 -41.67,17" /><path
         id="path32"
         style="fill:#ffffff;fill-opacity:1;fill-rule:nonzero;stroke:none"
         d="m 5695.34,2424.3 c -22.18,0 -40.04,-10.75 -51.64,-31.08 l -229.73,-473.26 -236.09,473.26 c -11.61,20.33 -29.47,31.08 -51.63,31.08 -16.38,0 -30.39,-5.72 -41.67,-17 -11.27,-11.28 -16.97,-25.3 -16.97,-41.68 v -568.68 c 0,-16.37 5.7,-30.4 16.98,-41.69 11.27,-11.27 25.28,-16.99 41.66,-16.99 16.38,0 30.39,5.72 41.68,17 11.26,11.28 16.97,25.31 16.97,41.68 v 346.22 L 5357,1797.97 c 10.92,-22.57 29.52,-34.51 53.8,-34.51 20.68,0 38.09,9.9 50.33,28.63 l 175.57,357.69 v -352.84 c 0,-16.39 5.71,-30.41 16.97,-41.68 11.27,-11.28 25.28,-17 41.67,-17 15.71,0 29.53,5.66 41.07,16.83 11.66,11.3 17.57,25.38 17.57,41.85 v 568.68 c 0,16.39 -5.71,30.41 -16.97,41.68 -11.27,11.28 -25.29,17 -41.67,17" /><path
         id="path34"
         style="fill:#ffffff;fill-opacity:1;fill-rule:nonzero;stroke:none"
         d="m 6397.88,1838.82 c -44.61,0 -85.22,10.74 -120.74,31.91 -35.53,21.17 -63.62,50.47 -83.47,87.09 -19.96,36.77 -30.08,78.45 -30.08,123.88 0,45.41 10.12,87.1 30.08,123.89 19.85,36.6 47.78,65.75 83.02,86.65 v 0 c 35.26,20.9 76.03,31.5 121.19,31.5 45.16,0 85.94,-10.6 121.19,-31.5 35.22,-20.89 63.15,-50.04 83.01,-86.64 19.97,-36.83 30.1,-78.51 30.1,-123.9 0,-45.4 -10.13,-87.08 -30.09,-123.88 -19.86,-36.62 -47.95,-65.92 -83.46,-87.09 -35.54,-21.17 -76.16,-31.91 -120.75,-31.91 z m 179.85,549.11 c -52.67,29.71 -113.19,44.77 -179.85,44.77 -67.23,0 -128.02,-15.06 -180.7,-44.77 -52.86,-29.81 -94.49,-71.91 -123.71,-125.13 -29.08,-52.94 -43.81,-113.86 -43.81,-181.1 0,-67.22 14.73,-128.28 43.8,-181.49 29.2,-53.5 70.84,-95.75 123.72,-125.58 52.68,-29.7 113.47,-44.77 180.7,-44.77 67.24,0 127.9,15.07 180.3,44.79 52.57,29.81 94.18,72.04 123.67,125.51 29.37,53.26 44.26,114.34 44.26,181.54 0,67.21 -14.9,128.16 -44.28,181.16 -29.5,53.18 -71.25,95.26 -124.1,125.07" /><path
         id="path36"
         style="fill:#ffffff;fill-opacity:1;fill-rule:nonzero;stroke:none"
         d="m 7583.16,2407.74 c -11,10.99 -24.88,16.56 -41.24,16.56 -16.26,0 -30.21,-5.51 -41.47,-16.38 l -0.02,-0.02 c -11.38,-11.03 -17.15,-25.25 -17.15,-42.28 v -414.53 l -338.96,451.26 -0.72,0.88 c -5.19,5.92 -11.8,10.92 -19.7,14.88 -8.26,4.11 -16.71,6.19 -25.15,6.19 -16.39,0 -30.26,-5.57 -41.26,-16.58 -10.99,-11 -16.55,-25.16 -16.55,-42.1 v -568.68 c 0,-16.95 5.56,-31.12 16.55,-42.1 10.98,-11 24.86,-16.58 41.26,-16.58 17.01,0 31.23,5.78 42.26,17.18 10.87,11.27 16.38,25.23 16.38,41.5 v 413.7 l 338.47,-450.57 c 5.09,-7.63 12.39,-13.35 21.71,-16.99 8.14,-3.2 16.34,-4.82 24.35,-4.82 16.37,0 30.25,5.58 41.26,16.58 10.98,11 16.56,25.16 16.56,42.1 v 568.68 c 0,16.93 -5.57,31.09 -16.58,42.12" /><path
         id="path38"
         style="fill:#181817;fill-opacity:1;fill-rule:nonzero;stroke:none"
         d="m 3403.51,1109.74 c 23.59,14.77 48.73,21.95 76.85,21.95 22.53,0 40.76,-2.7 54.17,-8.03 13.73,-5.47 28.25,-14.7 43.53,-27.73 10.11,-8.24 21.33,-12.42 33.35,-12.42 13,0 24.9,4.51 34.38,13.03 10.13,9.08 15.49,21.19 15.49,35.02 0,7.93 -1.35,15.15 -4.02,21.51 -3.01,7.15 -8.45,13.71 -15.61,19.06 -24.79,20.02 -49.81,34.66 -74.35,43.51 -24.63,8.89 -53.87,13.39 -86.94,13.39 -46.96,0 -90.54,-11.95 -129.51,-35.52 -38.81,-23.48 -69.82,-55.72 -92.16,-95.83 -22.29,-40.05 -33.6,-84.68 -33.6,-132.649 0,-48.359 11.3,-93.281 33.58,-133.519 22.35,-40.364 53.4,-72.633 92.25,-95.91 38.92,-23.34 82.48,-35.18 129.44,-35.18 61.41,0 115.95,19.41 161.94,57.547 7.83,6.351 17.15,18.121 17.15,38.09 v 145.8 c 0,14.582 -5.08,27.371 -14.69,37 l -0.02,0.02 c -9.61,9.609 -22.2,14.691 -36.37,14.691 h -113.99 c -14.37,0 -26.56,-4.379 -36.23,-13.05 -10.12,-9.098 -15.47,-21.2 -15.47,-35.008 0,-13.832 5.36,-25.93 15.47,-35 9.64,-8.66 21.83,-13.063 36.23,-13.063 h 64.11 v -77.39 c -25.27,-14.579 -50.93,-21.688 -78.13,-21.688 -28.13,0 -53.27,7.188 -76.85,21.969 -23.57,14.762 -42.57,35.082 -56.49,60.39 -13.93,25.34 -20.99,53.7 -20.99,84.301 0,30.207 7.07,58.499 21.03,84.059 13.9,25.48 32.89,45.89 56.45,60.65" /><path
         id="path40"
         style="fill:#181817;fill-opacity:1;fill-rule:nonzero;stroke:none"
         d="m 4093.66,1052.87 c 0,-18.93 -6.54,-33.87 -19.99,-45.64 -14.25,-12.468 -32.27,-18.539 -55.1,-18.539 h -58.01 v 135.679 h 58.01 c 22.49,0 40.31,-6.57 54.46,-20.07 13.88,-13.27 20.63,-30.1 20.63,-51.43 z m 27.52,-135.042 c 19.47,12.16 35.64,27.981 48.23,47.231 16.72,25.57 25.21,55.111 25.21,87.811 0,32.7 -7.58,62.34 -22.51,88.11 -15.06,25.96 -36.39,46.39 -63.41,60.71 -26.58,14.1 -56.9,21.24 -90.13,21.24 h -109.71 c -14.07,0 -26.67,-5 -36.47,-14.47 -9.96,-9.65 -15.22,-22.53 -15.22,-37.24 V 758.238 c 0,-14.187 5.18,-26.886 14.99,-36.699 9.81,-9.828 22.5,-15.019 36.7,-15.019 14.7,0 27.58,5.281 37.24,15.261 9.46,9.789 14.46,22.399 14.46,36.457 v 131.891 h 57.88 L 4117.53,731 c 10.24,-16.012 25.55,-24.48 44.29,-24.48 18.45,0 29.98,7.679 36.38,14.101 9.22,9.219 14.09,21.168 14.09,34.578 0,10.653 -3.06,20.981 -9.11,30.68 l -82,131.949" /><path
         id="path42"
         style="fill:#181817;fill-opacity:1;fill-rule:nonzero;stroke:none"
         d="m 4618.97,797.762 c -30.73,0 -58.66,7.367 -83.02,21.886 -24.72,14.731 -43.45,34.282 -57.27,59.762 -13.77,25.36 -20.74,54.16 -20.74,85.621 0,31.449 6.97,60.259 20.74,85.629 13.62,25.11 32.78,45.11 56.92,59.43 24.19,14.34 52.24,21.6 83.37,21.6 31.14,0 59.18,-7.27 83.36,-21.6 24.48,-14.51 43.1,-33.96 56.93,-59.43 13.77,-25.38 20.75,-54.199 20.75,-85.629 0,-31.441 -6.98,-60.242 -20.74,-85.621 -13.83,-25.48 -32.57,-45.031 -57.28,-59.762 -24.36,-14.519 -52.29,-21.886 -83.02,-21.886 z m 135.09,397.578 -0.01,0.01 c -39.65,22.35 -85.1,33.68 -135.08,33.68 -50.41,0 -96.06,-11.33 -135.69,-33.68 -39.89,-22.5 -71.3,-54.27 -93.35,-94.42 -21.86,-39.81 -32.94,-85.52 -32.94,-135.899 0,-50.351 11.08,-96.172 32.91,-136.16 22.05,-40.371 53.47,-72.25 93.37,-94.75 39.63,-22.359 85.28,-33.699 135.7,-33.699 50.42,0 95.99,11.348 135.43,33.719 39.67,22.488 71.05,54.339 93.28,94.66 22.08,40.039 33.28,85.871 33.28,136.23 0,50.379 -11.21,96.119 -33.3,135.969 -22.24,40.11 -53.73,71.85 -93.6,94.34" /><path
         id="path44"
         style="fill:#181817;fill-opacity:1;fill-rule:nonzero;stroke:none"
         d="m 5458.91,1222.93 c -14.07,0 -26.67,-5 -36.45,-14.46 -9.98,-9.64 -15.25,-22.53 -15.25,-37.25 V 886.34 c 0,-17.738 -4.42,-33.121 -13.5,-46.988 -9.24,-14.114 -21.85,-24.864 -38.55,-32.891 -17.09,-8.199 -36.94,-12.359 -59,-12.359 -23.37,0 -44.21,4.199 -61.96,12.468 -17.34,8.059 -30.43,18.871 -40.04,33.051 -9.38,13.82 -13.93,29.098 -13.93,46.719 v 284.88 c 0,14.58 -5.07,27.37 -14.7,37.01 -9.62,9.62 -22.42,14.7 -37,14.7 -14.06,0 -26.67,-5 -36.45,-14.47 h -0.01 c -9.96,-9.65 -15.23,-22.53 -15.23,-37.24 V 886.34 c 0,-36.77 9.62,-70.02 28.59,-98.828 18.82,-28.602 45.33,-51.192 78.81,-67.153 32.85,-15.66 70.5,-23.597 111.92,-23.597 40.26,0 76.95,7.976 109.05,23.687 32.68,16.012 58.57,38.75 76.96,67.61 18.45,28.953 27.82,62.023 27.82,98.281 v 284.88 c 0,14.58 -5.08,27.37 -14.69,37 -9.62,9.63 -22.21,14.71 -36.39,14.71" /><path
         id="path46"
         style="fill:#181817;fill-opacity:1;fill-rule:nonzero;stroke:none"
         d="m 6101.35,1222.93 c -14.06,0 -26.66,-5 -36.46,-14.45 l -0.02,-0.02 c -9.96,-9.65 -15.22,-22.53 -15.22,-37.24 V 897.469 l -229.77,305.881 -0.95,1.18 c -4.54,5.18 -10.27,9.53 -17.11,12.96 -7.25,3.61 -14.76,5.44 -22.31,5.44 -14.21,0 -26.8,-5.09 -36.39,-14.7 -9.62,-9.62 -14.69,-22.41 -14.69,-37.01 V 758.238 c 0,-14.609 5.07,-27.406 14.66,-36.988 9.6,-9.629 22.2,-14.73 36.42,-14.73 14.71,0 27.59,5.281 37.26,15.269 9.44,9.801 14.44,22.402 14.44,36.449 v 273.142 l 229.47,-305.509 c 4.73,-6.84 11.33,-11.961 19.64,-15.223 6.97,-2.738 14.05,-4.128 21.03,-4.128 14.19,0 26.76,5.089 36.39,14.71 9.61,9.622 14.69,22.418 14.69,37.008 v 412.982 c 0,14.58 -5.08,27.37 -14.71,37.02 -9.62,9.61 -22.2,14.69 -36.37,14.69" /><path
         id="path48"
         style="fill:#181817;fill-opacity:1;fill-rule:nonzero;stroke:none"
         d="m 6532.9,802.641 h -58.63 v 324.169 h 58.63 c 29.99,0 57.06,-6.89 80.47,-20.47 23.57,-13.7 41.42,-32.28 54.59,-56.82 13.18,-24.58 19.87,-53.008 19.87,-84.489 0,-31.5 -6.7,-60.051 -19.9,-84.84 -13.17,-24.73 -31.02,-43.39 -54.56,-57.07 -23.39,-13.59 -50.47,-20.48 -80.47,-20.48 z m 132.39,387.179 v 0 c -38.65,21.97 -83.19,33.11 -132.39,33.11 h -110.33 c -14.07,0 -26.67,-5 -36.47,-14.47 -9.96,-9.65 -15.22,-22.53 -15.22,-37.24 V 758.238 c 0,-14.187 5.18,-26.886 14.99,-36.699 9.81,-9.828 22.5,-15.019 36.7,-15.019 h 110.33 c 49.21,0 93.76,11.152 132.39,33.109 38.85,22.09 69.52,53.23 91.14,92.543 21.47,39.019 32.36,83.719 32.36,132.859 0,49.159 -10.9,93.769 -32.38,132.599 -21.62,39.08 -52.28,70.1 -91.12,92.19" /></g></g></svg>